<svg width="1439" height="399" viewBox="0 0 1439 399" fill="none" xmlns="http://www.w3.org/2000/svg">
    <path fill="#ffffff" fill-opacity="0.04" d="M 1566.17 538.559 C 1538.61 559.307 1439.09 542.51 1429.82 494.646 C 1420.55 446.782 1483.29 250.478 1517.41 248.773 C 1572 246.035 1654.65 275.627 1644.87 326.027 C 1630.69 399.044 1613.92 502.651 1566.15 538.614 L 1566.17 538.559 Z M 1443.44 356.788 C 1434.67 380.837 1415.94 446.676 1404.33 480.413 C 1393.4 512.09 1303.56 497.225 1270.41 465.658 C 1236.93 433.828 1266.61 298.244 1317.46 218.834 C 1339.52 184.399 1407.56 202.307 1448.91 230.627 C 1490.25 258.946 1468.09 288.867 1443.39 356.717 L 1443.44 356.788 Z M 1337.21 178.116 C 1311.15 165.795 1335.61 54.438 1405.19 62.189 C 1474.76 69.939 1506.1 102.201 1489.19 180.094 C 1478.21 230.824 1450.51 206.97 1430.23 199.674 C 1391.29 185.631 1363.28 190.438 1337.21 178.116 Z M 1267.66 173.206 C 1295.79 189.797 1283.5 222.173 1264.18 285.316 C 1244.28 350.373 1236.61 406.116 1210.65 439.217 C 1184.7 472.318 1089.65 451.517 1081.29 411.511 C 1072.94 371.505 1097.36 236.289 1132.83 176.566 C 1168.3 116.843 1249.42 162.439 1267.66 173.206 Z M 1319.92 90.217 C 1319.03 122.266 1306.68 179.123 1276.64 160.844 C 1245.1 141.629 1215.64 132.712 1169.84 130.18 C 1134.85 128.288 1171.25 9.43 1224.58 16.094 C 1277.9 22.758 1321.31 44.073 1320 90.178 L 1319.92 90.217 Z M 994.187 418.505 C 910.406 386.072 873.758 393.831 917.193 253.001 C 962.238 107.112 973.477 101.49 1032.57 114 C 1074.33 122.835 1104.95 144.811 1101.67 171.326 C 1083.8 316.552 1038.56 435.709 994.187 418.505 Z M 850.309 347.676 C 822.747 368.424 723.227 351.627 713.96 303.763 C 704.694 255.899 767.432 59.595 801.551 57.891 C 856.144 55.152 938.787 84.745 929.009 135.144 C 914.834 208.161 898.058 311.769 850.294 347.731 L 850.309 347.676 Z M 727.581 165.905 C 718.815 189.954 700.083 255.793 688.472 289.531 C 677.541 321.207 587.703 306.342 554.546 274.775 C 521.068 242.945 550.749 107.361 601.601 27.951 C 623.66 -6.483 691.643 11.408 733.048 39.744 C 774.392 68.064 752.229 97.984 727.534 165.834 L 727.581 165.905 Z M 948.67 534.048 C 834.697 520.952 870.004 397.612 885.087 396.203 C 900.17 394.795 964.464 427.994 1008.99 440.93 C 1033.87 448.154 1037.22 544.2 948.67 534.048 Z M 856.96 396.026 C 851.157 445.243 831.279 512.193 738.07 488.638 C 659.018 468.622 669.189 395.423 683.054 357.151 C 696.92 318.879 737.379 363.019 777.222 369.511 C 817.065 376.003 859.135 378.307 857.035 395.987 L 856.96 396.026 Z M 642.609 323.752 C 656.657 325.491 678.172 323.495 668.122 356.527 C 658.086 389.505 645.275 458.634 555.14 426.985 C 465.661 395.57 504.444 309.695 516.672 291.293 C 528.885 272.945 575.052 315.537 642.594 323.807 L 642.609 323.752 Z M 1090.27 3.003 C 1189.32 25.99 1119.95 139.539 1107.29 131.855 C 1094.63 124.17 1020.03 95.306 989.164 88.492 C 964.412 83.014 995.783 -18.945 1090.27 3.003 Z M 792.397 30.189 C 776.223 12.89 794.051 -42.447 829.607 -61.063 C 865.163 -79.68 974.405 -69.676 972.708 -12.812 C 971.011 44.052 947.898 92.49 932.143 82.445 C 879.869 49.027 808.572 47.488 792.397 30.189 Z M 621.347 -12.768 C 595.283 -25.09 619.746 -136.447 689.323 -128.697 C 758.899 -120.947 790.236 -88.684 773.322 -10.79 C 762.345 39.94 734.649 16.086 714.369 8.789 C 675.429 -5.254 647.412 -0.446 621.347 -12.768 Z M 551.86 -17.66 C 579.989 -1.069 567.696 31.306 548.375 94.45 C 529.053 157.593 520.805 215.249 494.852 248.35 C 468.9 281.451 373.845 260.65 365.491 220.644 C 356.927 179.461 381.556 45.423 417.026 -14.301 C 452.496 -74.024 533.617 -28.428 551.86 -17.66 Z M 481.973 332.926 C 455.404 400.453 421.335 400.99 378.991 381.081 C 312.891 349.997 328.412 242.513 370.303 264.367 C 410.466 285.348 442.015 282.25 470.739 284.596 C 499.464 286.943 486.656 321.247 482.034 332.942 L 481.973 332.926 Z M 278.508 227.673 C 194.726 195.24 158.078 202.999 201.513 62.17 C 246.559 -83.72 257.797 -89.341 316.888 -76.832 C 358.655 -67.997 389.27 -46.021 385.991 -19.506 C 368.119 125.72 322.881 244.877 278.508 227.673 Z M 134.629 156.842 C 107.068 177.59 7.547 160.793 -1.719 112.929 C -10.985 65.066 51.752 -131.239 85.871 -132.944 C 140.464 -135.682 223.108 -106.09 213.329 -55.689 C 199.154 17.327 182.378 120.935 134.614 156.897 L 134.629 156.842 Z M 11.901 -24.928 C 3.135 -0.88 -15.597 64.959 -27.208 98.697 C -38.138 130.373 -127.977 115.508 -161.133 83.941 C -194.612 52.111 -164.93 -83.472 -114.079 -162.883 C -92.02 -197.318 -24.036 -179.426 17.368 -151.09 C 58.712 -122.771 36.549 -92.85 11.855 -25 L 11.901 -24.928 Z M 232.99 343.214 C 119.017 330.118 154.324 206.778 169.407 205.369 C 184.491 203.961 248.784 237.16 293.315 250.096 C 318.189 257.32 321.537 353.366 232.99 343.214 Z M 141.28 205.192 C 135.478 254.409 115.599 321.359 22.391 297.804 C -56.662 277.788 -46.491 204.589 -32.625 166.317 C -18.76 128.045 21.7 172.185 61.542 178.677 C 101.385 185.169 143.455 187.473 141.356 205.153 L 141.28 205.192 Z M 459.334 444.06 C 446.564 443.902 437.409 433.374 435.722 419.111 C 434.034 404.849 464.371 394.285 482.168 399.857 C 499.966 405.429 471.906 444.225 459.395 444.077 L 459.334 444.06 Z M 409.932 447.181 C 399.07 460.459 377.237 456.29 355.168 449.579 C 333.098 442.868 316.43 378.391 339.247 382.055 C 362.064 385.719 404.602 401.961 416.464 412.385 C 428.327 422.808 419.244 435.792 409.946 447.126 L 409.932 447.181 Z M 314.779 386.802 C 308.725 390.383 286.317 380.039 280.739 366.392 C 275.161 352.745 311.751 329.269 324.614 335.945 C 337.476 342.621 328.837 378.45 314.703 386.841 L 314.779 386.802 Z M 139.552 366.11 C 113.441 374.554 75.7 347.432 83.304 329.212 C 90.907 310.993 127.781 296.506 148.089 313.254 C 168.398 330.003 154.435 361.284 139.491 366.094 L 139.552 366.11 Z M 254.007 421.775 C 228.379 449.001 165.92 394.213 170.014 368.565 C 174.107 342.917 217.054 357.379 248.875 365.274 C 278.178 372.556 279.635 394.549 254.007 421.775 Z M 122.206 424.054 C 105.263 418.71 112.474 384.802 140.181 384.103 C 168.617 383.363 175.433 392.854 161.368 418.146 C 154.321 430.847 139.15 429.398 122.206 424.054 Z M 13.903 382.84 C -30.27 407.541 -52.272 321.395 -43.562 305.891 C -34.852 290.387 20.755 315.958 44.082 323.594 C 68.553 331.595 58.137 358.155 13.903 382.84 Z M 47.332 391.81 C 46.484 377.83 70.649 356.825 86.593 365.917 C 102.537 375.009 103.314 386.313 101.142 396.418 C 97.353 414.061 48.18 405.789 47.332 391.81 Z M 1408.9 48.243 C 1384.31 46.821 1374.01 45.728 1372.93 29.206 C 1371.84 12.683 1411.13 -16.98 1452.51 -3.525 C 1493.9 9.93 1488.28 61.911 1478.36 64.521 C 1460.57 69.221 1433.49 49.664 1408.9 48.243 Z M 1349.73 67.647 C 1341.84 69.556 1328.31 61.935 1323.22 50.13 C 1318.14 38.326 1324.97 15.887 1347.81 26.818 C 1370.65 37.748 1362.52 64.563 1349.79 67.663 L 1349.73 67.647 Z M 1216.3 -3.112 C 1204.52 -13.867 1220.59 -64.066 1271.39 -51.347 C 1322.18 -38.628 1319.87 7.8 1314 22.941 C 1308.14 38.081 1289.03 20.001 1277.14 13.112 C 1250.88 -2.154 1228.07 7.642 1216.3 -3.112 Z M 1394.34 -20.214 C 1389.2 -7.064 1375.01 14.534 1365.43 9.028 C 1355.85 3.523 1354.87 -35.461 1369.32 -41.348 C 1383.77 -47.236 1397.72 -28.7 1394.34 -20.214 Z M 1340.06 11.532 C 1328.03 8.326 1311.44 -32.638 1314.65 -44.707 C 1317.87 -56.776 1348.66 -42.073 1349.29 -37.066 C 1353.14 -6.88 1348.6 13.81 1339.99 11.515 L 1340.06 11.532 Z M 979.202 -32.748 C 973.996 -50.487 1009.98 -73.652 1031.42 -57.723 C 1052.86 -41.794 1040.31 -17.516 1028.57 -11.496 C 1021.74 -7.945 989.328 1.592 979.202 -32.748 Z M 1118.4 -7.615 C 1107.06 -9.932 1068.88 -7.716 1063.22 -20.795 C 1057.55 -33.875 1084.48 -79.939 1117.21 -75.225 C 1149.95 -70.51 1171.64 -45.955 1165.7 -23.691 C 1159.76 -1.426 1145.18 -2.128 1118.46 -7.599 L 1118.4 -7.615 Z M 1149.95 18.447 C 1146.32 10.986 1176.94 -13.612 1192.38 -9.495 C 1207.82 -5.378 1194.95 7.836 1183.53 16.833 C 1175.16 23.456 1153.59 25.909 1149.95 18.447 Z M 82.755 -202.529 C 109.324 -270.056 143.393 -270.593 185.737 -250.684 C 251.837 -219.6 236.316 -112.116 194.425 -133.97 C 154.262 -154.951 122.713 -151.853 93.989 -154.199 C 65.264 -156.546 78.072 -190.85 82.694 -202.545 L 82.755 -202.529 Z M 331.738 -212.818 C 445.711 -199.722 410.404 -76.382 395.321 -74.973 C 380.237 -73.565 315.944 -106.764 271.413 -119.7 C 246.539 -126.924 243.191 -222.97 331.738 -212.818 Z M 423.448 -74.795 C 429.25 -124.012 449.129 -190.962 542.337 -167.407 C 621.39 -147.391 611.219 -74.192 597.353 -35.92 C 583.488 2.352 543.028 -41.788 503.186 -48.28 C 463.343 -54.772 421.273 -57.076 423.372 -74.756 L 423.448 -74.795 Z M 105.395 -313.662 C 118.165 -313.504 127.32 -302.976 129.007 -288.713 C 130.695 -274.451 100.358 -263.887 82.561 -269.459 C 64.763 -275.031 92.823 -313.827 105.334 -313.679 L 105.395 -313.662 Z M 154.796 -316.785 C 165.658 -330.063 187.491 -325.894 209.56 -319.183 C 231.63 -312.472 248.298 -247.995 225.481 -251.659 C 202.664 -255.323 160.126 -271.565 148.264 -281.989 C 136.401 -292.412 145.484 -305.396 154.782 -316.73 L 154.796 -316.785 Z M 249.948 -256.405 C 256.002 -259.986 278.41 -249.642 283.988 -235.995 C 289.566 -222.348 252.976 -198.872 240.113 -205.548 C 227.251 -212.224 235.89 -248.053 250.024 -256.444 L 249.948 -256.405 Z M 425.176 -235.713 C 451.287 -244.157 489.028 -217.035 481.424 -198.815 C 473.821 -180.596 436.947 -166.109 416.639 -182.857 C 396.33 -199.606 410.293 -230.887 425.237 -235.697 L 425.176 -235.713 Z M 310.722 -291.379 C 336.35 -318.605 398.809 -263.817 394.715 -238.169 C 390.622 -212.521 347.675 -226.983 315.854 -234.878 C 286.551 -242.16 285.094 -264.153 310.722 -291.379 Z M 442.521 -293.656 C 459.464 -288.312 452.253 -254.404 424.546 -253.705 C 396.11 -252.965 389.294 -262.456 403.359 -287.748 C 410.406 -300.449 425.577 -299 442.521 -293.656 Z M 550.825 -252.443 C 594.998 -277.144 617 -190.998 608.29 -175.494 C 599.58 -159.99 543.973 -185.561 520.646 -193.197 C 496.175 -201.198 506.591 -227.758 550.825 -252.443 Z M 517.395 -261.413 C 518.243 -247.433 494.078 -226.428 478.134 -235.52 C 462.19 -244.612 461.413 -255.916 463.585 -266.021 C 467.374 -283.664 516.547 -275.392 517.395 -261.413 Z M 796.058 -141.312 C 822.169 -149.756 859.91 -122.634 852.306 -104.414 C 844.703 -86.195 807.829 -71.708 787.521 -88.456 C 767.212 -105.205 781.175 -136.486 796.119 -141.296 L 796.058 -141.312 Z M 681.604 -196.979 C 707.232 -224.205 769.691 -169.417 765.597 -143.769 C 761.504 -118.121 718.557 -132.583 686.736 -140.478 C 657.433 -147.76 655.976 -169.753 681.604 -196.979 Z M 813.403 -199.256 C 830.346 -193.912 823.135 -160.004 795.428 -159.305 C 766.992 -158.565 760.176 -168.056 774.241 -193.348 C 781.288 -206.049 796.459 -204.6 813.403 -199.256 Z M 921.707 -158.043 C 965.88 -182.744 987.882 -96.598 979.172 -81.094 C 970.462 -65.59 914.855 -91.161 891.528 -98.797 C 867.057 -106.798 877.473 -133.358 921.707 -158.043 Z M 888.277 -167.014 C 889.125 -153.034 864.96 -132.029 849.016 -141.121 C 833.072 -150.213 832.295 -161.517 834.467 -171.622 C 838.256 -189.265 887.429 -180.993 888.277 -167.014 Z M 611.677 -221.203 C 606.471 -238.942 642.455 -262.107 663.895 -246.178 C 685.335 -230.248 672.785 -205.97 661.045 -199.951 C 654.215 -196.4 621.803 -186.863 611.677 -221.203 Z M 635.485 -170.578 C 648.255 -170.42 657.41 -159.892 659.097 -145.629 C 660.785 -131.367 630.448 -120.803 612.651 -126.375 C 594.853 -131.947 622.913 -170.743 635.424 -170.595 L 635.485 -170.578 Z M 1035.746 -128.266 C 1036.594 -114.286 1012.429 -93.281 996.485 -102.373 C 980.541 -111.465 979.764 -122.769 981.936 -132.874 C 985.725 -150.517 1034.898 -142.245 1035.746 -128.266 Z M 1059.188 -121.626 C 1065.242 -125.207 1087.65 -114.863 1093.228 -101.216 C 1098.806 -87.569 1062.216 -64.093 1049.353 -70.769 C 1036.491 -77.445 1045.13 -113.274 1059.264 -121.665 L 1059.188 -121.626 Z M 281.192 436.15 C 264.249 430.806 271.46 396.898 299.167 396.199 C 327.603 395.459 334.419 404.95 320.354 430.242 C 313.307 442.943 298.136 441.494 281.192 436.15 Z M 837.172 541.701 C 831.118 545.282 808.71 534.938 803.132 521.291 C 797.554 507.644 834.144 484.168 847.007 490.844 C 859.869 497.52 851.23 533.349 837.096 541.74 L 837.172 541.701 Z M 661.945 521.009 C 635.834 529.453 598.093 502.331 605.697 484.111 C 613.3 465.892 650.174 451.405 670.482 468.153 C 690.791 484.902 676.828 516.183 661.884 520.993 L 661.945 521.009 Z M 776.4 576.674 C 750.772 603.9 688.313 549.112 692.407 523.464 C 696.5 497.816 739.447 512.278 771.268 520.173 C 800.571 527.455 802.028 549.448 776.4 576.674 Z M 644.599 578.953 C 627.656 573.609 634.867 539.701 662.574 539.002 C 691.01 538.262 697.826 547.753 683.761 573.045 C 676.714 585.746 661.543 584.297 644.599 578.953 Z M 561.605 509.821 C 517.432 534.522 495.43 448.376 504.14 432.872 C 512.85 417.368 568.457 442.939 591.784 450.575 C 616.255 458.576 605.839 485.136 561.605 509.821 Z M 569.725 546.709 C 568.877 532.729 593.042 511.724 608.986 520.816 C 624.93 529.908 625.707 541.212 623.535 551.317 C 619.746 568.96 570.573 560.688 569.725 546.709 Z M 803.585 591.049 C 786.642 585.705 793.853 551.797 821.56 551.098 C 849.996 550.358 856.812 559.849 842.747 585.141 C 835.7 597.842 820.529 596.393 803.585 591.049 Z M 497.744 465.405 C 498.592 479.385 474.427 500.39 458.483 491.298 C 442.539 482.206 441.762 470.902 443.934 460.797 C 447.723 443.154 496.896 451.426 497.744 465.405 Z M 1565.911 595.33 C 1560.108 644.547 1540.23 711.497 1447.021 687.942 C 1367.969 667.926 1378.14 594.727 1392.005 556.455 C 1405.871 518.183 1446.33 562.323 1486.173 568.815 C 1526.016 575.307 1568.086 577.611 1565.986 595.291 L 1565.911 595.33 Z M 1351.56 523.056 C 1365.608 524.795 1387.123 522.799 1377.073 555.831 C 1367.037 588.809 1354.226 657.938 1264.091 626.289 C 1174.612 594.874 1213.395 508.999 1225.623 490.597 C 1237.836 472.249 1284.003 514.841 1351.545 523.111 L 1351.56 523.056 Z M 1190.924 532.23 C 1164.355 599.757 1130.286 600.294 1087.942 580.385 C 1021.842 549.301 1037.363 441.817 1079.254 463.671 C 1119.417 484.652 1150.966 481.554 1179.69 483.9 C 1208.415 486.247 1195.607 520.551 1190.985 532.246 L 1190.924 532.23 Z M 1157.382 644.084 C 1144.612 643.926 1135.457 633.398 1133.77 619.135 C 1132.082 604.873 1162.419 594.309 1180.216 599.881 C 1198.014 605.453 1169.954 644.249 1157.443 644.101 L 1157.382 644.084 Z M 1107.98 647.205 C 1097.118 660.483 1075.285 656.314 1053.216 649.603 C 1031.146 642.892 1014.478 578.415 1037.295 582.079 C 1060.112 585.743 1102.65 601.985 1114.512 612.409 C 1126.375 622.832 1117.292 635.816 1107.994 647.15 L 1107.98 647.205 Z M 1012.827 586.826 C 1006.773 590.407 984.365 580.063 978.787 566.416 C 973.209 552.769 1009.799 529.293 1022.662 535.969 C 1035.524 542.645 1026.885 578.474 1012.751 586.865 L 1012.827 586.826 Z M 952.055 621.799 C 926.427 649.025 863.968 594.237 868.062 568.589 C 872.155 542.941 915.102 557.403 946.923 565.298 C 976.226 572.58 977.683 594.573 952.055 621.799 Z M 979.24 636.174 C 962.297 630.83 969.508 596.922 997.215 596.223 C 1025.651 595.483 1032.467 604.974 1018.402 630.266 C 1011.355 642.967 996.184 641.518 979.24 636.174 Z M 1359.993 721.033 C 1333.882 729.477 1296.141 702.355 1303.745 684.135 C 1311.348 665.916 1348.222 651.429 1368.53 668.177 C 1388.839 684.926 1374.876 716.207 1359.932 721.017 L 1359.993 721.033 Z M 1474.448 776.698 C 1448.82 803.924 1386.361 749.136 1390.455 723.488 C 1394.548 697.84 1437.495 712.302 1469.316 720.197 C 1498.619 727.479 1500.076 749.472 1474.448 776.698 Z M 1342.647 778.977 C 1325.704 773.633 1332.915 739.725 1360.622 739.026 C 1389.058 738.286 1395.874 747.777 1381.809 773.069 C 1374.762 785.77 1359.591 784.321 1342.647 778.977 Z M 1259.653 709.845 C 1215.48 734.546 1193.478 648.4 1202.188 632.896 C 1210.898 617.392 1266.505 642.963 1289.832 650.599 C 1314.303 658.6 1303.887 685.16 1259.653 709.845 Z M 1267.773 746.733 C 1266.925 732.753 1291.09 711.748 1307.034 720.84 C 1322.978 729.932 1323.755 741.236 1321.583 751.341 C 1317.794 768.984 1268.621 760.712 1267.773 746.733 Z M 1501.633 791.073 C 1484.69 785.729 1491.901 751.821 1519.608 751.122 C 1548.044 750.382 1554.86 759.873 1540.795 785.165 C 1533.748 797.866 1518.577 796.417 1501.633 791.073 Z M 1195.793 665.428 C 1196.641 679.408 1172.476 700.413 1156.532 691.321 C 1140.588 682.229 1139.811 670.925 1141.983 660.82 C 1145.772 643.177 1194.945 651.449 1195.793 665.428 Z"></path>
</svg>
