<svg width="1440" height="996" viewBox="0 0 1440 996" fill="none" xmlns="http://www.w3.org/2000/svg">
    <path fill="#ffffff" fill-opacity="0.04" d="M 1665.36 762.673 L 1694.46 894.778 L 1536.23 973.324 L 1456.06 812.235 Z M 1732.34 344.618 L 1645 526.086 L 1420.45 441.942 L 1497.37 169.98 Z M 1528.31 1235.11 C 1528.31 1235.11 1131.73 1247.06 1120.43 1241.29 C 1109.13 1235.52 1231.88 863.68 1233.98 854.789 C 1236.08 845.897 1419.98 873.85 1419.98 873.85 L 1444.24 1059.81 L 1528.33 1235.02 Z M 1122.35 797.244 L 1159.95 581.883 L 1412.87 688.761 L 1410.69 800.721 Z M 1474.81 529.364 L 1416.67 646.084 L 1282.77 594.34 L 1354.04 454.244 Z M 1169 323.541 L 1229.31 -66.242 L 1401.45 -16.269 L 1446.39 197.605 L 1386.69 396.674 Z M 1310.07 425.162 L 1245.87 562.323 L 1151.74 530.783 L 1167.8 378.085 Z M 1117.85 351.849 L 1105.95 630.495 L 898.61 729.496 L 865.379 573.653 L 954.066 536.775 L 865.04 534.604 L 928.834 291.6 Z M 1146.68 995.616 L 1039.96 923.283 L 1099.56 845.702 L 1192.59 867.682 C 1192.59 867.682 1151.76 987.606 1146.66 995.7 Z M 822.601 1093.17 L 969.251 953.787 L 1126.41 1041.31 L 1113.28 1136.96 Z M 1068.96 719.971 L 1068.59 815.621 L 900.224 968.557 L 804.724 965.299 L 800.166 836.158 Z M 1044.32 -48.75 L 995.925 156.089 L 715.981 144.057 L 688.515 18.536 L 762.89 -108.074 Z M 789.454 532.155 L 595.284 453.596 L 543.779 321.864 L 638.911 322.555 L 547.106 294.664 L 592.967 181.155 L 922.836 209.412 Z M 670.758 -107.972 L 670.737 -107.977 C 670.751 -108.004 670.764 -108.03 670.778 -108.056 Z M 620.755 23.068 L 661.858 131.353 L 587.582 136.475 L 480.047 67.582 L 502.324 -147.769 L 670.737 -107.977 C 664.777 -96.466 620.755 23.068 620.755 23.068 Z M 500.586 289.877 L 389.969 260.64 L 454.073 123.898 L 541.795 169.069 Z M 565.935 550.816 L 459.975 576.085 L 392.256 345.049 L 515.747 340.042 Z M 731.209 792.147 L 516.444 639.199 L 596.382 596.623 L 627.74 517.505 L 731.149 571.253 Z M 454.137 956.503 L 368.92 961.077 L 220.132 764.291 L 428.899 633.39 L 638.1 782.898 C 638.1 782.898 460.3 957.782 454.221 956.522 Z M 646.624 1082.67 L 488.166 1014.14 L 639.907 828.849 L 697.115 842.366 Z M 369.134 456.401 L 398.233 588.507 L 240.008 667.053 L 159.836 505.964 Z M 166.21 428.383 L 222.723 239.808 L 339.273 273.546 L 361.022 396.653 Z M 436.116 38.346 L 348.779 219.815 L 124.223 135.67 L 201.147 -136.292 Z M 232.091 928.835 C 232.091 928.835 -164.491 940.788 -175.793 935.018 C -187.094 929.248 -64.341 557.409 -62.241 548.517 C -60.14 539.626 123.758 567.578 123.758 567.578 L 148.014 753.539 L 232.111 928.751 Z M -173.873 490.972 L -136.272 275.611 L 116.656 382.489 L 114.469 494.45 Z M 178.583 223.092 L 120.449 339.812 L -13.456 288.069 L 57.817 147.973 Z M -127.219 17.27 L -66.916 -372.513 L 105.225 -322.54 L 150.164 -108.667 L 90.463 90.402 Z M 13.855 118.891 L -50.349 256.052 L -144.48 224.511 L -128.416 71.813 Z M 1187.16 4.567 L 1154.47 169.899 L 1037.2 142.191 L 1094.53 -57.704 Z M 1146.13 218.686 L 1123.18 315.82 L 959.295 243.267 L 1010.74 186.697 Z M 820.668 601.699 L 852.171 764.485 L 772.77 777.43 L 783.576 583.636 Z M 782.497 978.027 L 826.661 1006.26 L 833.701 1046.19 L 687.631 1030.18 L 729.841 878.526 L 762.645 873.878 Z"></path>
</svg>
