<svg width="1440" height="858" viewBox="0 0 1440 858" fill="none" xmlns="http://www.w3.org/2000/svg">
    <path fill="#ffffff" fill-opacity="0.04" d="M 1498.25 906.368 L 1454.84 944.372 C 1454.84 944.372 1439.72 798.191 1435.98 696.104 C 1432.24 594.017 1475.65 441.23 1488.87 318.383 C 1502.1 195.536 1458.69 -41.408 1458.69 -41.408 C 1522.85 90.275 1528.49 295.049 1524.75 390.53 C 1521.01 486.011 1486.98 534.91 1479.44 674.743 C 1471.86 814.576 1498.3 906.368 1498.3 906.368 Z M 1379.35 -178.836 C 1379.35 -178.836 1471.85 -26.735 1449.2 221.962 C 1426.55 470.573 1394.03 505.574 1386.88 566.569 C 1386.88 566.569 1362.33 414.983 1322.66 321.389 C 1271.29 200.172 1292.48 -50.155 1313.23 -178.836 L 1339.68 -167.169 C 1339.68 -167.169 1281.15 148.785 1384.98 335.973 C 1384.98 335.973 1460.53 95.34 1367.97 -170.086 L 1379.29 -178.836 Z M 1352.96 1049.72 C 1352.96 1049.72 1403.95 994.128 1351.06 775.542 C 1298.17 556.957 1324.62 467.566 1324.62 467.566 C 1326.51 613.833 1352.96 654.754 1377.51 717.464 C 1402.06 780.175 1396.37 929.788 1396.37 929.788 C 1390.95 1092.78 1370.25 1048.43 1352.96 1049.72 Z M 1326.57 900.53 L 1278.17 975.594 C 1278.17 975.594 1281.26 991.207 1250.97 923.95 C 1220.68 856.693 1207.62 584.662 1228.37 427.242 C 1249.13 269.823 1222.68 -38.41 1222.68 -38.41 C 1222.68 -38.41 1260.45 181.033 1267.88 321.381 C 1275.3 461.729 1256.66 485.149 1258.56 646.943 C 1260.45 808.738 1326.51 900.53 1326.51 900.53 Z M 1210.65 -190.504 L 1210.627 -190.503 C 1210.642 -190.561 1210.65 -190.59 1210.65 -190.59 Z M 1183.01 93.366 C 1194.34 230.711 1196.23 307.833 1183.01 427.249 C 1183.01 427.249 1173.58 171.947 1149.03 95.425 C 1124.48 18.817 1130.17 -126.164 1156.56 -187.587 L 1210.627 -190.503 C 1209.56 -186.452 1171.84 -42.041 1183.01 93.366 Z M 1090.34 -158.425 C 1090.34 -158.425 1073.22 -6.325 1090.34 119.439 C 1107.47 245.203 1160.36 397.647 1164.1 520.323 C 1167.89 642.998 1162.2 775.453 1162.2 775.453 C 1162.2 775.453 1148.98 512.43 1115 427.072 C 1081.02 341.714 1030.84 157.7 1033.28 18.639 C 1035.72 -120.422 1052.68 -222.852 1052.68 -222.852 L 1090.29 -158.511 Z M 1071.59 912.289 C 1094.25 827.445 1099.94 566.566 1099.94 566.566 C 1143.34 738.57 1107.63 918.122 1099.94 947.376 C 1099.94 947.376 1048.94 997.132 1071.59 912.289 Z M 1017.18 956.377 L 986.946 947.798 C 986.946 947.798 1007.43 887.318 1026.29 717.631 C 1045.2 547.944 971.555 321.466 971.555 321.466 C 971.555 321.466 962.722 409.913 952.697 566.646 C 940.503 757.093 962.018 997.211 962.018 997.211 L 913.733 1001.33 C 913.733 1001.33 883.114 829.841 902.081 605.164 C 912.757 478.8 954.539 341.883 947.006 172.196 C 939.474 2.595 950.8 -167.092 950.8 -167.092 L 998.001 -161.258 C 998.001 -161.258 986.675 -55.912 982.881 56.126 C 979.088 168.164 1013.07 201.45 1048.94 496.901 C 1084.82 792.352 1017.18 956.291 1017.18 956.291 Z M 884.686 -193.508 C 878.996 -170.089 882.789 -0.402 890.376 145.78 C 897.909 292.047 860.191 362.221 860.191 467.567 C 860.191 572.914 863.985 674.657 863.985 674.657 C 863.985 674.657 816.675 444.147 845.126 248.124 C 873.523 52.1 822.474 -199.428 822.474 -199.428 L 884.795 -193.594 Z M 759.666 -178.836 C 759.666 -178.836 822.366 -2.972 820.47 93.367 C 818.573 189.706 792.127 307.32 794.024 353.816 C 794.024 353.816 778.904 251.129 788.334 151.702 C 797.763 52.275 695.828 -170.086 695.828 -170.086 Z M 720.375 1014.63 C 720.375 1014.63 769.473 853.782 769.473 717.552 C 769.473 581.322 710.946 479.322 722.272 390.532 C 733.598 301.742 753.107 107.863 753.107 107.863 C 770.774 196.91 750.56 309.635 753.107 390.532 C 755.654 471.429 812.881 578.749 826.104 688.814 C 839.327 798.793 822.364 929.79 818.571 953.21 Z M 658.111 -181.845 C 658.111 -181.845 722.328 -9.241 699.676 195.533 C 677.024 400.307 703.469 534.306 697.779 672.081 C 692.089 809.855 656.214 1040.88 656.214 1040.88 L 592.593 1026.3 C 592.593 1026.3 622.452 962.127 646.785 717.462 C 669.87 485.751 639.252 406.14 656.214 268.624 C 673.23 131.107 677.24 -51.191 631.882 -185.705 L 658.057 -181.845 Z M 576.497 -199.342 C 576.497 -199.342 627.871 -68.86 622.181 56.046 C 616.491 180.953 593.839 340.002 608.958 427.247 C 608.958 427.247 582.513 277.806 582.513 18.815 C 582.513 -142.403 556.622 -197.615 537.073 -216.324 L 576.443 -199.256 Z M 537.073 -216.324 L 515.694 -225.593 C 515.694 -225.593 525.217 -227.671 537.073 -216.324 Z M 535.364 935.533 L 465.511 944.283 C 465.511 944.283 576.55 862.442 550.483 607.912 C 524.417 353.467 544.793 297.877 544.793 297.877 C 544.793 426.643 588.255 490.984 595.788 613.831 C 603.32 736.678 548.587 912.199 535.364 935.619 Z M 480.686 897.53 L 415.98 920.95 C 447.629 836.192 391.865 634.335 391.865 496.818 C 391.865 359.301 446.599 300.795 446.599 300.795 C 427.686 376.888 416.36 584.578 433.376 646.86 C 450.392 709.227 450.392 809.255 450.392 809.255 C 450.392 809.255 473.045 757.182 465.512 631.161 C 457.979 505.14 478.735 256.957 505.18 186.783 C 531.626 116.61 542.952 -55.994 542.952 -55.994 C 542.952 -55.994 563.762 -55.994 535.419 128.277 C 507.077 312.547 491.957 464.648 505.18 631.161 C 518.349 797.674 480.686 897.616 480.686 897.616 Z M 457.926 -219.846 C 461.719 -211.095 500.954 -60.367 486.051 69 C 471.149 198.452 461.719 236.456 461.719 236.456 C 461.719 236.456 472.124 -105.835 415.927 -190.592 Z M 333.335 -202.261 C 333.335 -202.261 474.017 -23.395 389.966 254.041 C 326.724 462.761 342.765 582.348 359.781 688.724 C 325.803 654.152 293.287 449.893 305.047 245.205 C 316.753 41.203 255.407 -228.684 255.407 -228.684 L 286.134 -211.097 C 286.134 -211.097 352.194 58.017 346.558 280.377 C 346.558 280.377 412.239 185.068 380.536 2.513 C 348.834 -180.042 314.477 -199.344 314.477 -199.344 Z M 318.271 915.12 L 276.706 999.964 C 276.706 999.964 306.891 891.7 284.239 775.545 C 261.587 659.389 274.809 374.232 274.809 374.232 C 271.016 494.42 310.684 669.426 323.907 775.545 C 337.076 881.663 318.217 915.12 318.217 915.12 Z M 227.665 944.372 C 227.665 944.372 227.665 944.371 227.666 944.369 L 227.719 944.372 Z M 227.666 944.369 L 170.98 941.455 C 214.388 795.188 172.877 564.077 182.306 390.444 C 191.736 216.811 269.176 18.643 269.176 18.643 C 267.279 166.454 231.404 256.873 220.078 374.145 C 208.752 491.416 244.627 640.085 255.411 751.265 C 266.159 862.076 227.92 943.827 227.666 944.369 Z M 210.592 -313.439 C 210.592 -313.439 231.835 -70.662 207.07 40.518 C 182.304 151.698 148.271 330.994 152.065 390.53 C 152.065 390.53 129.304 157.961 172.82 -32.572 C 216.336 -223.191 136.945 -254.933 136.945 -254.933 Z M 104.975 -184.76 L 104.866 -184.748 C 104.867 -184.756 104.867 -184.76 104.867 -184.76 Z M 97.334 294.962 C 125.677 470.482 135.106 665.219 119.986 775.542 C 119.986 775.542 113.104 617.607 78.801 523.585 C 44.497 429.562 -82.691 254.47 -42.372 -181.843 L -17.823 -184.76 C -17.823 -184.76 -63.128 163.708 59.617 372.685 C 59.617 372.685 37.615 -44.326 78.855 -181.843 L 104.866 -184.748 C 104.605 -182.533 69.096 120.084 97.334 294.962 Z M 12.303 935.617 L -42.431 912.197 C -42.431 912.197 38.749 751.346 0.977 639.565 C -36.795 527.785 -19.779 390.525 -19.779 390.525 C -23.518 497.674 29.319 514.402 55.765 668.047 C 82.211 821.692 14.254 923.95 12.357 935.617 Z"></path>
</svg>
