<svg width="1440" height="158" viewBox="0 0 1440 158" fill="none" xmlns="http://www.w3.org/2000/svg">
  <defs></defs>
  <mask id="mask0_1123_63528" style="mask-type:alpha" maskUnits="userSpaceOnUse" x="0" y="0" width="1440" height="158">
    <rect width="1440" height="158" fill="#01426A"></rect>
  </mask>
  <g mask="url(#mask0_1123_63528)">
    <path d="M 75 136 L 30 136 L 30 377 L 75 377 L 75 136 Z" fill="#00A0DF" opacity="0.14" style="mix-blend-mode: hard-light;"></path>
    <path d="M 117.222 326.779 L 162.162 329.105 L 174.619 88.428 L 129.68 86.102 L 117.222 326.779 Z" fill="#00A0DF" opacity="0.14" style="mix-blend-mode: hard-light;"></path>
    <path d="M 271 122 L 226 122 L 226 363 L 271 363 L 271 122 Z" fill="#00A0DF" opacity="0.14" style="mix-blend-mode: hard-light;"></path>
    <path d="M 28.283 143.999 L -36 162.887 L 31.94 394.112 L 96.222 375.224 L 28.283 143.999 Z" fill="#01426A" opacity="0.14" style="mix-blend-mode: hard-light;"></path>
    <path d="M 139.312 313.563 L 205.172 325.873 L 249.45 88.976 L 183.59 76.666 L 139.312 313.563 Z" fill="#01426A" opacity="0.14" style="mix-blend-mode: hard-light;"></path>
    <path d="M 129 93 L 65 93 L 65 334 L 129 334 L 129 93 Z" fill="#0075A9" opacity="0.14" style="mix-blend-mode: hard-light;"></path>
    <path d="M 284.576 85.001 L 224 105.654 L 301.774 333.76 L 362.35 313.106 L 284.576 85.001 Z" fill="#0075A9" opacity="0.14" style="mix-blend-mode: hard-light;"></path>
    <path d="M 410.567 115.584 L 365.955 109.684 L 334.356 348.603 L 378.968 354.503 L 410.567 115.584 Z" fill="#00A0DF" opacity="0.14" style="mix-blend-mode: hard-light;"></path>
    <path d="M 427.411 310.253 L 471.658 318.451 L 515.565 81.484 L 471.318 73.286 L 427.411 310.253 Z" fill="#00A0DF" opacity="0.14" style="mix-blend-mode: hard-light;"></path>
    <path d="M 606.711 127.404 L 562.1 121.504 L 530.501 360.423 L 575.112 366.324 L 606.711 127.404 Z" fill="#00A0DF" opacity="0.14" style="mix-blend-mode: hard-light;"></path>
    <path d="M 363.204 117.389 L 297 127.686 L 334.036 365.823 L 400.24 355.527 L 363.204 117.389 Z" fill="#01426A" opacity="0.14" style="mix-blend-mode: hard-light;"></path>
    <path d="M 451.042 300.046 L 514.719 320.885 L 589.675 91.838 L 525.998 70.999 L 451.042 300.046 Z" fill="#01426A" opacity="0.14" style="mix-blend-mode: hard-light;"></path>
    <path d="M 469.739 80.036 L 406.291 71.645 L 374.692 310.564 L 438.14 318.955 L 469.739 80.036 Z" fill="#0075A9" opacity="0.14" style="mix-blend-mode: hard-light;"></path>
    <path d="M 625.021 92.504 L 562.26 105.037 L 609.454 341.371 L 672.215 328.838 L 625.021 92.504 Z" fill="#0075A9" opacity="0.14" style="mix-blend-mode: hard-light;"></path>
    <path d="M 913 136 L 868 136 L 868 377 L 913 377 L 913 136 Z" fill="#00A0DF" opacity="0.14" style="mix-blend-mode: hard-light;"></path>
    <path d="M 801 139 L 756 139 L 756 380 L 801 380 L 801 139 Z" fill="#00A0DF" opacity="0.14" style="mix-blend-mode: hard-light;"></path>
    <path d="M 722 136 L 677 136 L 677 377 L 722 377 L 722 136 Z" fill="#00A0DF" opacity="0.14" style="mix-blend-mode: hard-light;"></path>
    <path d="M 955.222 326.779 L 1000.16 329.105 L 1012.62 88.428 L 967.68 86.102 L 955.222 326.779 Z" fill="#00A0DF" opacity="0.14" style="mix-blend-mode: hard-light;"></path>
    <path d="M 1109 122 L 1064 122 L 1064 363 L 1109 363 L 1109 122 Z" fill="#00A0DF" opacity="0.14" style="mix-blend-mode: hard-light;"></path>
    <path d="M 866.283 143.999 L 802 162.887 L 869.939 394.112 L 934.222 375.224 L 866.283 143.999 Z" fill="#01426A" opacity="0.14" style="mix-blend-mode: hard-light;"></path>
    <path d="M 675.283 143.999 L 611 162.887 L 678.939 394.112 L 743.222 375.224 L 675.283 143.999 Z" fill="#01426A" opacity="0.14" style="mix-blend-mode: hard-light;"></path>
    <path d="M 977.312 313.563 L 1043.17 325.873 L 1087.45 88.976 L 1021.59 76.666 L 977.312 313.563 Z" fill="#01426A" opacity="0.14" style="mix-blend-mode: hard-light;"></path>
    <path d="M 967 93 L 903 93 L 903 334 L 967 334 L 967 93 Z" fill="#0075A9" opacity="0.14" style="mix-blend-mode: hard-light;"></path>
    <path d="M 814.1 153.495 L 757.832 123 L 643.001 334.884 L 699.269 365.379 L 814.1 153.495 Z" fill="#0075A9" opacity="0.14" style="mix-blend-mode: hard-light;"></path>
    <path d="M 1122.58 85.001 L 1062 105.654 L 1139.77 333.76 L 1200.35 313.106 L 1122.58 85.001 Z" fill="#0075A9" opacity="0.14" style="mix-blend-mode: hard-light;"></path>
    <path d="M 1248.57 115.584 L 1203.96 109.684 L 1172.36 348.603 L 1216.97 354.503 L 1248.57 115.584 Z" fill="#00A0DF" opacity="0.14" style="mix-blend-mode: hard-light;"></path>
    <path d="M 1265.41 310.253 L 1309.66 318.451 L 1353.56 81.484 L 1309.32 73.286 L 1265.41 310.253 Z" fill="#00A0DF" opacity="0.14" style="mix-blend-mode: hard-light;"></path>
    <path d="M 1444.71 127.404 L 1400.1 121.504 L 1368.5 360.423 L 1413.11 366.324 L 1444.71 127.404 Z" fill="#00A0DF" opacity="0.14" style="mix-blend-mode: hard-light;"></path>
    <path d="M 1201.2 117.389 L 1135 127.686 L 1172.04 365.823 L 1238.24 355.527 L 1201.2 117.389 Z" fill="#01426A" opacity="0.14" style="mix-blend-mode: hard-light;"></path>
    <path d="M 1289.04 300.046 L 1352.72 320.885 L 1427.68 91.838 L 1364 70.999 L 1289.04 300.046 Z" fill="#01426A" opacity="0.14" style="mix-blend-mode: hard-light;"></path>
    <path d="M 1307.74 80.036 L 1244.29 71.645 L 1212.69 310.564 L 1276.14 318.955 L 1307.74 80.036 Z" fill="#0075A9" opacity="0.14" style="mix-blend-mode: hard-light;"></path>
    <path d="M 1463.02 92.504 L 1400.26 105.037 L 1447.45 341.371 L 1510.22 328.838 L 1463.02 92.504 Z" fill="#0075A9" opacity="0.14" style="mix-blend-mode: hard-light;"></path>
  </g>
</svg>